<svg xmlns="http://www.w3.org/2000/svg" viewBox="0 0 493.79 135.21"><defs><style>.f8e19725-993b-4cb6-9207-a6de0923fdd5{fill:#fff;}.e65c40ac-46a3-46cb-8d4a-6427f993ffe5{fill:#e86d30;}</style></defs><title>1</title><g id="adc74124-5c53-46af-866b-b7a613d2255f" data-name="Livello 2"><g id="a765a0fd-4d13-4c9e-8923-243891824853" data-name="Livello 1"><path class="f8e19725-993b-4cb6-9207-a6de0923fdd5" d="M29.12,59a28.57,28.57,0,0,0,6.51-1.46C38,56.51,39.22,55,39.22,52.92c0-2.53-.93-4.39-2.66-5.32a18.15,18.15,0,0,0-8-1.47c-4,0-6.64.94-8.37,2.93a11.7,11.7,0,0,0-2.39,5.72H2c.4-5.45,1.87-10,4.66-13.56C11,35.63,18.48,33,29.12,33a38.85,38.85,0,0,1,18.34,4.12c5.32,2.66,8,7.85,8,15.43V81.23c0,2,0,4.39.13,7.32.14,2.12.4,3.59.94,4.38A4.85,4.85,0,0,0,58.9,94.8v2.39H41.08A21,21,0,0,1,40,93.6a29.12,29.12,0,0,1-.4-3.86A36,36,0,0,1,31.78,96a24.35,24.35,0,0,1-12.1,3.06c-5.72,0-10.37-1.6-14.1-4.92S0,86.29,0,80.3C0,72.59,3.06,67,9,63.55c3.32-1.86,8.11-3.19,14.49-4Zm10,7.58a18.66,18.66,0,0,1-3.19,1.6,22.23,22.23,0,0,1-4.39,1.06l-3.72.66c-3.46.67-6,1.33-7.58,2.26a7.57,7.57,0,0,0-3.86,6.92c0,2.79.8,4.78,2.4,6.11a9.16,9.16,0,0,0,5.71,1.86,17.25,17.25,0,0,0,9.84-3c3.06-2.13,4.52-5.85,4.66-11.3V66.61Z"/><path class="f8e19725-993b-4cb6-9207-a6de0923fdd5" d="M129.23,42c4.65,6,7.05,13.56,7.05,23,0,9.71-2.26,17.82-6.92,24.2s-11,9.57-19.41,9.57c-5.18,0-9.44-1.06-12.5-3a22.66,22.66,0,0,1-6.11-6.52v7.85H75.12V12.36H91.47V42.55a23.14,23.14,0,0,1,6.92-6.65A21,21,0,0,1,109.69,33c8.37.14,14.75,3.06,19.54,9M115.54,80.17c2.39-3.46,3.59-7.84,3.59-13.43a29.7,29.7,0,0,0-1.73-11c-2.26-5.59-6.25-8.25-12.23-8.25S95.06,50.12,92.8,55.57a29.82,29.82,0,0,0-1.73,11.17c0,5.32,1.2,9.84,3.59,13.3s6,5.32,10.91,5.32a11.47,11.47,0,0,0,10-5.19"/><path class="f8e19725-993b-4cb6-9207-a6de0923fdd5" d="M166.19,77.11c.4,2.93,1.07,5.06,2.26,6.25,2,2.13,5.85,3.33,11.3,3.33a17.68,17.68,0,0,0,7.71-1.47A4.68,4.68,0,0,0,190.39,81a5,5,0,0,0-2.26-4.26c-1.6-.93-7.31-2.65-17.15-4.92-7.18-1.72-12.1-4-15-6.64s-4.38-6.38-4.38-11.3A19.37,19.37,0,0,1,158.35,39c4.52-4.13,10.9-6.25,19.28-6.25,7.84,0,14.22,1.59,19.14,4.65s7.85,8.51,8.51,16.22H188.79a10.74,10.74,0,0,0-1.72-5c-1.87-2.26-4.92-3.33-9.18-3.33-3.59,0-6.11.54-7.71,1.73a4.83,4.83,0,0,0-2.26,3.86,4.45,4.45,0,0,0,2.39,4.12c1.6.93,7.32,2.39,17.15,4.52,6.52,1.6,11.44,3.86,14.63,6.91a16,16,0,0,1,4.79,11.84A18.64,18.64,0,0,1,200,93.33c-4.65,4-11.83,5.85-21.54,5.85s-17.15-2.12-21.93-6.25a20.37,20.37,0,0,1-7.05-16h16.75Z"/><path class="f8e19725-993b-4cb6-9207-a6de0923fdd5" d="M218.44,46.67V35h8.78V17.42h16.22V35h10.24v11.7H243.44v33.1c0,2.53.26,4.12.93,4.79s2.66.93,6,.93H252a6.57,6.57,0,0,0,1.59-.13V97.59l-7.71.26c-7.71.27-13-1.06-15.82-4-1.86-1.87-2.79-4.79-2.79-8.65V46.67Z"/><path class="f8e19725-993b-4cb6-9207-a6de0923fdd5" d="M304.86,33a7.42,7.42,0,0,1,1.46.14V49.86c-1.06-.14-2-.14-2.79-.27h-2c-6.65,0-11,2.13-13.3,6.38-1.33,2.4-1.86,6.12-1.86,11.17V97.06H269.9V34.3h15.68V45.2c2.53-4.12,4.79-7,6.65-8.5,3.06-2.53,7-3.86,12-3.86a1.45,1.45,0,0,0,.66.13"/><path class="f8e19725-993b-4cb6-9207-a6de0923fdd5" d="M346.61,59a28.44,28.44,0,0,0,6.51-1.46c2.4-1.06,3.59-2.53,3.59-4.65,0-2.53-.93-4.39-2.65-5.32a18.21,18.21,0,0,0-8-1.47c-4,0-6.65.94-8.38,2.93a11.89,11.89,0,0,0-2.39,5.72H319.49c.4-5.45,1.86-10,4.65-13.56C328.53,35.63,336,33,346.61,33A38.92,38.92,0,0,1,365,37.09c5.32,2.66,8,7.85,8,15.43V81.23c0,2,0,4.39.14,7.32a9.73,9.73,0,0,0,.93,4.38,4.9,4.9,0,0,0,2.39,1.87v2.39H358.58a21.11,21.11,0,0,1-1.07-3.59,29.12,29.12,0,0,1-.4-3.86A36,36,0,0,1,349.27,96a24.35,24.35,0,0,1-12.1,3.06c-5.72,0-10.37-1.6-14.09-4.92s-5.59-7.84-5.59-13.83c0-7.71,3.06-13.29,9-16.75,3.33-1.86,8.11-3.19,14.5-4Zm10.1,7.58a18,18,0,0,1-3.19,1.6,21.92,21.92,0,0,1-4.38,1.06l-3.73.66c-3.45.67-6,1.33-7.58,2.26A7.58,7.58,0,0,0,334,79.11c0,2.79.8,4.78,2.39,6.11a9.21,9.21,0,0,0,5.72,1.86,17.27,17.27,0,0,0,9.84-3c3.06-2.13,4.52-5.85,4.65-11.3V66.61Z"/><path class="f8e19725-993b-4cb6-9207-a6de0923fdd5" d="M430.77,56.9a13.91,13.91,0,0,0-2.39-6.38c-1.87-2.52-4.66-3.85-8.65-3.85-5.58,0-9.3,2.79-11.3,8.24a34.68,34.68,0,0,0-1.59,11.57,31.34,31.34,0,0,0,1.59,11c2,5.19,5.72,7.85,11,7.85,3.85,0,6.51-1.07,8.24-3.06a15.24,15.24,0,0,0,2.93-8.11h16.75a26.23,26.23,0,0,1-5.45,14.09c-5.19,7.18-12.77,10.77-22.87,10.77s-17.55-2.92-22.34-8.91-7.18-13.69-7.18-23.26c0-10.77,2.66-19.15,7.85-25.13s12.5-9,21.8-9c7.85,0,14.36,1.72,19.28,5.31s8,9.71,8.91,18.75H430.77Z"/><path class="f8e19725-993b-4cb6-9207-a6de0923fdd5" d="M458.29,46.67V35h8.78V17.42h16.22V35h10.23v11.7H483.29v33.1c0,2.53.26,4.12.93,4.79s2.66.93,6,.93h1.59a6.61,6.61,0,0,0,1.6-.13V97.59l-7.71.26c-7.71.27-13-1.06-15.82-4-1.86-1.87-2.79-4.79-2.79-8.65V46.67Z"/><polygon class="e65c40ac-46a3-46cb-8d4a-6427f993ffe5" points="206.21 111.55 206.21 115.54 199.43 115.54 199.43 134.42 194.64 134.42 194.64 115.54 187.73 115.54 187.73 111.55 206.21 111.55"/><polygon class="e65c40ac-46a3-46cb-8d4a-6427f993ffe5" points="235.59 115.54 223.5 115.54 223.5 120.46 234.53 120.46 234.53 124.44 223.5 124.44 223.5 130.29 236.13 130.29 236.13 134.42 218.71 134.42 218.71 111.55 235.59 111.55 235.59 115.54"/><path class="e65c40ac-46a3-46cb-8d4a-6427f993ffe5" d="M251.55,113.94a9.61,9.61,0,0,1,7-2.79c3.86,0,6.65,1.33,8.38,3.85a9.5,9.5,0,0,1,1.6,4.26h-4.79a5.69,5.69,0,0,0-1.2-2.53,4.88,4.88,0,0,0-3.85-1.46,4.41,4.41,0,0,0-4,2.13,11,11,0,0,0-1.46,6c0,2.53.53,4.52,1.59,5.72a4.79,4.79,0,0,0,4,1.86,4.43,4.43,0,0,0,3.72-1.6,5.54,5.54,0,0,0,1.2-2.66h4.79a10.19,10.19,0,0,1-3.19,6.12,9.15,9.15,0,0,1-6.52,2.39,9.82,9.82,0,0,1-7.71-3.19c-1.86-2.12-2.79-5.05-2.79-8.77,0-4.12,1.06-7.18,3.19-9.31"/><polygon class="e65c40ac-46a3-46cb-8d4a-6427f993ffe5" points="281.86 134.42 281.86 111.55 286.65 111.55 286.65 120.19 295.56 120.19 295.56 111.55 300.34 111.55 300.34 134.42 295.56 134.42 295.56 124.18 286.65 124.18 286.65 134.42 281.86 134.42"/><polygon class="f8e19725-993b-4cb6-9207-a6de0923fdd5" points="316.83 114.47 316.69 114.47 316.69 134.42 314.57 134.42 314.57 111.42 316.96 111.42 330.26 131.49 330.39 131.49 330.39 111.42 332.52 111.42 332.52 134.42 329.99 134.42 316.83 114.47"/><path class="f8e19725-993b-4cb6-9207-a6de0923fdd5" d="M346.34,123a17,17,0,0,1,.67-4.65,9.79,9.79,0,0,1,2-3.86,11,11,0,0,1,3.33-2.66,9.88,9.88,0,0,1,4.52-.93,10.45,10.45,0,0,1,4.65.93,9.22,9.22,0,0,1,3.32,2.53,9.55,9.55,0,0,1,2,3.86,17.2,17.2,0,0,1,0,9.44,11.72,11.72,0,0,1-2,3.85,10.83,10.83,0,0,1-3.32,2.66,12.12,12.12,0,0,1-9.31,0,9.11,9.11,0,0,1-3.32-2.66,9.56,9.56,0,0,1-2-3.85,17.87,17.87,0,0,1-.54-4.66M357,133.22a8.75,8.75,0,0,0,3.86-.8,7.28,7.28,0,0,0,2.65-2.26A8.72,8.72,0,0,0,365,127a18.43,18.43,0,0,0,.53-3.86,13.77,13.77,0,0,0-.53-4.25,7.35,7.35,0,0,0-1.73-3.19,6.36,6.36,0,0,0-2.66-2A7.76,7.76,0,0,0,357,113a8.75,8.75,0,0,0-3.86.8,7.28,7.28,0,0,0-2.65,2.26,8.41,8.41,0,0,0-1.47,3.32,18.43,18.43,0,0,0-.53,3.86,12.2,12.2,0,0,0,.53,3.85,8.72,8.72,0,0,0,1.47,3.19,7.18,7.18,0,0,0,2.65,2.26,15.38,15.38,0,0,0,3.86.67"/><polygon class="f8e19725-993b-4cb6-9207-a6de0923fdd5" points="381.44 134.42 381.44 111.42 383.7 111.42 383.7 132.56 395.94 132.56 395.94 134.42 381.44 134.42"/><path class="f8e19725-993b-4cb6-9207-a6de0923fdd5" d="M407.9,123a17,17,0,0,1,.67-4.65,9.66,9.66,0,0,1,2-3.86,11,11,0,0,1,3.32-2.66,9.91,9.91,0,0,1,4.52-.93,10.49,10.49,0,0,1,4.66.93,9.31,9.31,0,0,1,3.32,2.53,9.68,9.68,0,0,1,2,3.86,17.2,17.2,0,0,1,0,9.44,11.72,11.72,0,0,1-2,3.85,10.83,10.83,0,0,1-3.32,2.66,12.12,12.12,0,0,1-9.31,0,9.11,9.11,0,0,1-3.32-2.66,9.7,9.7,0,0,1-2-3.85,17.87,17.87,0,0,1-.53-4.66m10.64,10.24a8.67,8.67,0,0,0,3.85-.8,7.23,7.23,0,0,0,2.66-2.26,8.54,8.54,0,0,0,1.46-3.19,17.79,17.79,0,0,0,.54-3.86,13.76,13.76,0,0,0-.54-4.25,7.34,7.34,0,0,0-1.72-3.19,6.36,6.36,0,0,0-2.66-2,7.79,7.79,0,0,0-3.59-.67,8.75,8.75,0,0,0-3.86.8,7.39,7.39,0,0,0-2.66,2.26,8.55,8.55,0,0,0-1.46,3.32,17.79,17.79,0,0,0-.53,3.86,12.2,12.2,0,0,0,.53,3.85,8.87,8.87,0,0,0,1.46,3.19,7.29,7.29,0,0,0,2.66,2.26,15.38,15.38,0,0,0,3.86.67"/><path class="f8e19725-993b-4cb6-9207-a6de0923fdd5" d="M452.84,124.44v-1.86h9.84v11.84h-1.86v-3.86a9.34,9.34,0,0,1-1.33,1.86,6.93,6.93,0,0,1-1.86,1.46,9.85,9.85,0,0,1-2.4.93,10.76,10.76,0,0,1-3.06.27,9.69,9.69,0,0,1-4-.8,9.33,9.33,0,0,1-5.32-6.11,16.1,16.1,0,0,1-.8-5.32,17,17,0,0,1,.67-4.65,9.83,9.83,0,0,1,10-7.32,12.91,12.91,0,0,1,3.32.4,9.24,9.24,0,0,1,2.79,1.33,8.65,8.65,0,0,1,2.13,2.26,11.61,11.61,0,0,1,1.2,3.19h-2.26a7.15,7.15,0,0,0-.93-2.26,10.5,10.5,0,0,0-1.6-1.73,11.14,11.14,0,0,0-2.13-1.06,7.35,7.35,0,0,0-2.39-.4,8.75,8.75,0,0,0-3.86.8,7.39,7.39,0,0,0-2.66,2.26,12,12,0,0,0-1.59,3.46,21.7,21.7,0,0,0-.53,4.38,10.15,10.15,0,0,0,.53,3.59,11.22,11.22,0,0,0,1.59,3.06,7.07,7.07,0,0,0,2.66,2.13,7.81,7.81,0,0,0,3.46.8,9.08,9.08,0,0,0,1.86-.27,7.69,7.69,0,0,0,1.86-.66,8,8,0,0,0,1.73-1.2,9.64,9.64,0,0,0,1.33-1.86,6.49,6.49,0,0,0,.8-2.26,15.13,15.13,0,0,0,.26-2.53h-7.44Z"/><polygon class="f8e19725-993b-4cb6-9207-a6de0923fdd5" points="484.48 122.58 491.26 111.42 493.79 111.42 485.55 124.44 485.55 134.42 483.42 134.42 483.42 124.58 475.18 111.42 477.7 111.42 484.48 122.58"/><path class="e65c40ac-46a3-46cb-8d4a-6427f993ffe5" d="M43.61,14.23a1.69,1.69,0,0,1-.13.79c-.14.27-.27.4-.4.67a2.24,2.24,0,0,0-.8.8l-11.17,9.7V19.94l6.38-5.58c.27-.27.53-.53.53-.67a5.11,5.11,0,0,0,.14-.66,1,1,0,0,0-.14-.67c0-.13-.26-.26-.53-.66L31.11,6.12v-6L42.28,9.71a2.31,2.31,0,0,1,.8.79c.13.14.4.4.4.67a1.71,1.71,0,0,1,.13.8v2.26"/><path class="e65c40ac-46a3-46cb-8d4a-6427f993ffe5" d="M30.45,14.23c0,.26-.14.53-.14.79s-.26.4-.4.67a2.22,2.22,0,0,0-.79.8L18,26.19V19.94l6.38-5.58c.27-.27.53-.53.53-.67A5.11,5.11,0,0,0,25,13a1,1,0,0,0-.14-.67c0-.13-.26-.26-.53-.66L18,6.12V0L29.12,9.57a2.2,2.2,0,0,1,.79.8.73.73,0,0,1,.4.67,1.58,1.58,0,0,1,.14.79v2.4"/></g></g></svg>